<?xml version="1.0" encoding="UTF-8" standalone="no"?>
<!-- Generator: Adobe Illustrator 28.1.0, SVG Export Plug-In . SVG Version: 6.00 Build 0)  -->

<svg
   version="1.1"
   id="Ebene_1"
   x="0px"
   y="0px"
   viewBox="0 0 162.49999 150.5"
   xml:space="preserve"
   sodipodi:docname="2024_JCA_Logo_hell_Icon.svg"
   inkscape:version="1.3.2 (091e20e, 2023-11-25, custom)"
   width="162.5"
   height="150.5"
   inkscape:export-filename="2024_JCA_Logo_hell.jpg"
   inkscape:export-xdpi="600"
   inkscape:export-ydpi="600"
   xmlns:inkscape="http://www.inkscape.org/namespaces/inkscape"
   xmlns:sodipodi="http://sodipodi.sourceforge.net/DTD/sodipodi-0.dtd"
   xmlns:xlink="http://www.w3.org/1999/xlink"
   xmlns="http://www.w3.org/2000/svg"
   xmlns:svg="http://www.w3.org/2000/svg"><defs
   id="defs33"><linearGradient
     id="swatch33"
     inkscape:swatch="solid"><stop
       style="stop-color:#000000;stop-opacity:1;"
       offset="0"
       id="stop33" /></linearGradient><linearGradient
     inkscape:collect="always"
     xlink:href="#swatch33"
     id="linearGradient33"
     x1="0"
     y1="86.5"
     x2="124.3"
     y2="86.5"
     gradientUnits="userSpaceOnUse" /></defs><sodipodi:namedview
   id="namedview33"
   pagecolor="#ffffff"
   bordercolor="#000000"
   borderopacity="0.25"
   inkscape:showpageshadow="2"
   inkscape:pageopacity="0.0"
   inkscape:pagecheckerboard="true"
   inkscape:deskcolor="#d1d1d1"
   showgrid="false"
   inkscape:zoom="5.6568543"
   inkscape:cx="69.473241"
   inkscape:cy="124.3624"
   inkscape:window-width="3840"
   inkscape:window-height="2036"
   inkscape:window-x="-12"
   inkscape:window-y="-12"
   inkscape:window-maximized="1"
   inkscape:current-layer="g60"
   inkscape:export-bgcolor="#00000000" />
<style
   type="text/css"
   id="style1">.st0 { fill:#E4232C; }
.st1 { fill:#1D1D1B;stroke:#FFFFFF;stroke-width:8.109;stroke-miterlimit:10; }
.st2 { 
    fill:#1D1D1D;
}
</style>

<g
   id="g60"
   inkscape:label="Logo"
   style="display:inline">
	
	
	<path
   class="st0"
   d="M 95.2,0 C 58.1,0 27.9,30.1 27.9,67.3 c 0,37.2 30.1,67.3 67.3,67.3 37.2,0 67.3,-30.1 67.3,-67.3 C 162.5,30.1 132.4,0 95.2,0 Z M 52.1,82.3 v 0 c -0.1,0.1 -0.1,0.1 0,0 -0.1,0.1 -0.1,0.1 0,0 z m 59.5,23.2 c -3,0.9 -6.1,1.6 -9.3,1.9 -1.6,0.2 -3.2,0.2 -4.8,0.2 -8.1,0 -15.8,-2.1 -22.5,-5.7 -2.7,-1.5 -5.3,-3.3 -7.7,-5.2 -1.8,-1.5 -3.4,-3.1 -5,-4.8 -2.6,-3 -4.9,-6.3 -6.7,-9.9 -3.2,-6.4 -5.1,-13.6 -5.1,-21.2 0,-25.3 20,-45.9 45.1,-46.9 5.48456,28.102326 22.05397,38.048095 48.4,42 1.75975,14.077968 -5.15763,40.997147 -32.4,49.6 z"
   id="path33"
   style="display:inline"
   inkscape:label="Sonne"
   sodipodi:nodetypes="ssssssscsccscccssccc" /><g
   id="g38"
   style="display:inline;fill:#000000;stroke:none;stroke-opacity:1;image-rendering:auto"
   inkscape:label="Judoka">
		<path
   class="st2"
   d="m 80.9,59.5 c 7.6,-1 12,-9 8.7,-15.9 -2,-4.2 -6.6,-6.7 -11.3,-6.1 -7.6,1 -12,9 -8.7,15.9 2.1,4.2 6.7,6.7 11.3,6.1 z"
   id="path34"
   style="display:inline;stroke:none;stroke-opacity:1"
   inkscape:label="Kopf oben" />
		
		<path
   class="st2"
   d="m 96.6,104.9 c 0,-2.8 0.5,-6 1.3,-8.8 0.7,-2.8 1.4,-5.4 0.8,-8.5 -0.6,-3.5 -3.5,-6.2 -7.2,-6.3 -7.8,-0.1 -15.5,9.2 -19.3,15.1 -4,6.5 -6.7,13.9 -7.2,21.6 -0.1,1.6 -0.1,3.2 -0.1,4.7 0.3,6.8 1.3,13.7 3.8,20.2 1,2.5 2.2,5 3.9,7.2 0,0 0,0.1 0,0.1 l 0.1,0.1 0.2,0.2 11.4,-11.3 c 0,0 0,0 0,0 -1.2,-1.1 -2.2,-2.6 -3,-4.1 -2.2,-4 -3.5,-8.9 -4.2,-13.4 -1.4,-9.1 2.1,-18.7 8,-25.7 1,-1.1 2.1,-2.3 3.4,-3.2 -1.1,3.8 -2,7.6 -2.2,11.7 -0.8,10.1 2.7,19.1 9.6,26.4 3.9,4.2 8.7,7.7 12.6,11.4 0,0 9.1,-12.7 9.1,-12.7 -10.8,-5.8 -21.3,-10.7 -21,-24.7 z"
   id="path35"
   style="display:inline;stroke:none;stroke-opacity:1"
   inkscape:label="Beine unten" />
		
		<path
   class="st2"
   d="m 124.2,72 c 0,0 0,0 0,0 v 0 c -0.6,0.1 -1.1,0.2 -1.7,0.2 -7.3,0.5 -15,-0.5 -21.7,-3.9 -1.6,-0.8 -3.1,-1.8 -4.5,-2.9 -1.3,-1 -2.4,-2.3 -3.2,-3.7 l -0.6,-1 c -6.2,3.6 -12.8,7.4 -18.9,11.1 -4.4,2.7 -11,6.4 -15.1,9.5 0,0 0,0 0,0 -2.4,1.7 -4.8,3.5 -7.1,5.4 -5.4,4.4 -11.9,9.7 -17.2,14.2 0,0 -0.3,0.3 -0.4,0.4 C 32.4,99.6 30.9,97.9 29.3,96.4 21.6,89.6 11.7,85.7 1.6,84 1.6,84 0.9,83.9 0.9,83.9 H 0.5 0.3 c -0.1,0 -0.1,0 -0.3,0 L 0.1,101 c 0,0 0,0 0,0 h 0.1 c 0.5,-0.1 1,-0.1 1.6,-0.2 7.3,-0.5 15,0.5 21.7,3.9 0.8,0.4 1.6,0.9 2.3,1.3 2.5,1.6 4.5,3.8 6,6.2 v 0 c 6.2,-3.6 12.8,-7.4 18.9,-11.1 4.4,-2.7 11,-6.4 15.1,-9.5 0,0 0,0 0,0 2.4,-1.7 4.8,-3.5 7.1,-5.4 5.4,-4.4 11.9,-9.7 17.2,-14.2 0,0 0.2,-0.1 0.4,-0.4 1.4,1.7 2.9,3.4 4.5,4.9 7.7,6.8 17.6,10.7 27.7,12.4 0,0 0.7,0.1 0.7,0.1 h 0.4 0.2 c 0.1,0 0.1,0 0.3,0 z"
   id="path36"
   style="display:inline;stroke:none;stroke-opacity:1"
   inkscape:label="Mitte" />
		<path
   class="st2"
   d="m 43.5,113.4 c -7.6,1 -12,9 -8.7,15.9 2,4.2 6.6,6.7 11.3,6.1 7.6,-1 12,-9 8.7,-15.9 -2.1,-4.2 -6.7,-6.7 -11.3,-6.1 z"
   id="path37"
   style="display:inline;stroke:none;stroke-opacity:1"
   inkscape:label="Kopf unten" />
		
		<path
   class="st2"
   d="m 27.6,64.6 c 0.5,4 -0.1,8.2 -1.1,12.2 -0.7,2.7 -1.3,5.1 -0.9,8 0.5,3.7 3.4,6.7 7.3,6.8 4.3,0 7.5,-2.3 10.5,-4.7 8,-7 13.5,-16.9 15.5,-27.3 1.1,-6 0.7,-12.2 -0.2,-18.2 -0.7,-4.5 -2,-9.4 -4,-13.6 -0.8,-1.7 -1.7,-3.4 -2.9,-4.9 0,0 0,-0.1 0,-0.1 L 51.7,22.7 51.5,22.5 40,33.7 c 0.3,0.3 0.6,0.6 0.9,0.9 0.8,1 1.5,2.1 2.1,3.2 2.2,4 3.5,8.9 4.2,13.4 1.4,9.1 -2.1,18.7 -8,25.7 -1,1.1 -2.1,2.3 -3.4,3.2 1.1,-3.8 2,-7.6 2.2,-11.7 C 38.8,58.3 35.3,49.3 28.4,42 24.5,37.8 19.7,34.3 15.8,30.6 c 0,0 -9.1,12.7 -9.1,12.7 9.3,4.9 19.7,9.7 20.9,21.3 z"
   id="path38"
   style="display:inline;stroke:none;stroke-opacity:1"
   inkscape:label="Beine oben" />
		
	</g>
	
</g></svg>
